<?xml version="1.0" standalone="yes"?>
<svg xmlns="http://www.w3.org/2000/svg" width="556" height="393">
<path style="fill:#ffffff; stroke:none;" d="M0 0L0 393L556 393L556 0L0 0z"/>
<path style="fill:#e59b3f; stroke:none;" d="M285 258L285 88L285 45C285 40.9352 286.663 32.0677 283.972 28.7423C279.477 23.1862 259.325 27.654 253 27.9614C217.092 29.707 180.009 46.0738 155.04 71.9962C106.608 122.278 122.539 195.292 178 232.481C209.783 253.792 247.72 259.601 285 258M352 29L352 30L365 30L352 29M346 30L347 31L346 30z"/>
<path style="fill:#d13672; stroke:none;" d="M347 30.4637C315.257 36.0727 285.153 68.6218 304.761 101C318.544 123.761 347.044 131.792 372 127.565C379.927 126.222 388.27 123.05 395 118.641C400.714 114.898 405.989 110.612 409.957 105C439.812 62.7678 388.229 23.1786 347 30.4637z"/>
<path style="fill:#e59b3f; stroke:none;" d="M341.667 31.3333L342.333 31.6667L341.667 31.3333M374 31L374 32L377 32L374 31M338 32L339 33L338 32M379 32L380 33L379 32M334.667 33.3333L335.333 33.6667L334.667 33.3333M381.667 33.3333L382.333 33.6667L381.667 33.3333M332 34L333 35L332 34M384 34L385 35L384 34M330 35L331 36L330 35M387 35L388 36L387 35M327.667 36.3333L328.333 36.6667L327.667 36.3333M389 36L390 37L389 36M326 37L327 38L326 37M391 37L392 38L391 37M323.667 38.3333L324.333 38.6667L323.667 38.3333M393 38L394 39L393 38M322 39L323 40L322 39M394 39L395 40L394 39M396 40L397 41L396 40M319 41L320 42L319 41M318 42L319 43L318 42M399 42L400 43L399 42M400 43L401 44L400 43M401 44L402 45L401 44M314 45L315 46L314 45M402 45L403 46L402 45M313 46L314 47L313 46M403 46L404 47L403 46M312 47L313 48L312 47M404 47L405 48L404 47M311 48L312 49L311 48M405 48L406 49L405 48M310 49L311 50L310 49M406 49L407 50L406 49M309 50L310 51L309 50M407 50L408 51L407 50M308 51L309 52L308 51M408 51L409 52L408 51M307 53L308 54L307 53M306 54L307 55L306 54M411 55L412 56L411 55M304.333 57.6667L304.667 58.3333L304.333 57.6667M412 57L413 58L412 57M303 59L304 60L303 59M414 60L415 61L414 60M302.333 61.6667L302.667 62.3333L302.333 61.6667M415 63L416 64L415 63M416 65L417 66L416 65M300.333 66.6667L300.667 67.3333L300.333 66.6667M417.333 68.6667L417.667 69.3333L417.333 68.6667M299 70L300 71L299 70M298 75L298 84L299 84L298 75M418 84L419 85L418 84M299 87L300 88L299 87M417 88L417 91L418 91L417 88M300 91L301 92L300 91M416 92L417 93L416 92M301 94L302 95L301 94M415 95L416 96L415 95M302.333 96.6667L302.667 97.3333L302.333 96.6667M414 97L415 98L414 97M413 99L414 100L413 99M304 100L305 101L304 100M305 102L306 103L305 102M411 102L412 103L411 102M306 103L307 104L306 103M410 104L411 105L410 104M307 105L308 106L307 105M409 105L410 106L409 105M308 106L309 107L308 106M309 107L310 108L309 107M310 108L311 109L310 108M311 109L312 110L311 109M312 110L313 111L312 110M313 111L314 112L313 111M315 113L316 114L315 113M316 114L317 115L316 114M400 114L401 115L400 114M317 115L318 116L317 115M399 115L400 116L399 115M398 116L399 117L398 116M320 117L321 118L320 117M396 117L397 118L396 117M322 118L323 119L322 118M395 118L396 119L395 118M323 119L324 120L323 119M393 119L394 120L393 119M325 120L326 121L325 120M392 120L393 121L392 120M327 121L328 122L327 121M329 122L330 123L329 122M387.667 122.333L388.333 122.667L387.667 122.333M331 123L332 124L331 123M385 123L386 124L385 123M333.667 124.333L334.333 124.667L333.667 124.333M382.667 124.333L383.333 124.667L382.667 124.333M336 125L337 126L336 125M380 125L381 126L380 125M339.667 126.333L340.333 126.667L339.667 126.333M377 126L378 127L377 126M343.667 127.333L344.333 127.667L343.667 127.333M372.667 127.333L373.333 127.667L372.667 127.333M350 128L350 129L353 129L350 128M365.667 128.333L366.333 128.667L365.667 128.333z"/>
<path style="fill:#64c5c3; stroke:none;" d="M302 139L302 374C350.898 374 400.278 361.112 433.816 323C441.032 314.799 446.821 305.002 451.13 295C477.007 234.925 436.496 176.161 381 152.427C355.652 141.587 329.239 139 302 139M207 261L208 262L207 261z"/>
<path style="fill:#3773d3; stroke:none;" d="M208 261.428C184.634 264.773 162.079 274.837 150.971 297C129.329 340.178 173.133 387.221 218 381.714C241.599 378.817 264.918 368.223 276.029 346C297.781 302.496 253.323 254.941 208 261.428z"/>
<path style="fill:#64c5c3; stroke:none;" d="M218.667 261.333L219.333 261.667L218.667 261.333M199 262L199 263L202 263L199 262M225 262L225 263L228 263L225 262M195 263L196 264L195 263M231 263L232 264L231 263M191.667 264.333L192.333 264.667L191.667 264.333M234.667 264.333L235.333 264.667L234.667 264.333M188 265L189 266L188 265M238 265L239 266L238 265M185 266L186 267L185 266M240.667 266.333L241.333 266.667L240.667 266.333M183 267L184 268L183 267M243 267L244 268L243 267M181 268L182 269L181 268M245 268L246 269L245 268M179 269L180 270L179 269M247 269L248 270L247 269M177 270L178 271L177 270M249 270L250 271L249 270M175 271L176 272L175 271M251 271L252 272L251 271M173 272L174 273L173 272M253 272L254 273L253 272M172 273L173 274L172 273M170 274L171 275L170 274M256 274L257 275L256 274M169 275L170 276L169 275M257 275L258 276L257 275M168 276L169 277L168 276M260 277L261 278L260 277M261 278L262 279L261 278M164 279L165 280L164 279M262 279L263 280L262 279M160 283L161 284L160 283M266 283L267 284L266 283M159 284L160 285L159 284M267 284L268 285L267 284M158 285L159 286L158 285M268 285L269 286L268 285M157 286L158 287L157 286M156 288L157 289L156 288M155 289L156 290L155 289M271 289L272 290L271 289M154 290L155 291L154 290M272 290L273 291L272 290M153 292L154 293L153 292M273 292L274 293L273 292M152 294L153 295L152 294M274 294L275 295L274 294M150 297L151 298L150 297M276 297L277 298L276 297M277.333 299.667L277.667 300.333L277.333 299.667M149 300L150 301L149 300M148 302L149 303L148 302M278 302L279 303L278 302M147.333 304.667L147.667 305.333L147.333 304.667M279.333 304.667L279.667 305.333L279.333 304.667M145 312L145 317L146 317L145 312M281 312L281 316L282 316L281 312M145 326L145 330L146 330L145 326M281 328L281 331L282 331L281 328M146.333 333.667L146.667 334.333L146.333 333.667M280 334L281 335L280 334M147.333 337.667L147.667 338.333L147.333 337.667M279.333 337.667L279.667 338.333L279.333 337.667M148 340L149 341L148 340M278 340L279 341L278 340M149.333 342.667L149.667 343.333L149.333 342.667M277.333 342.667L277.667 343.333L277.333 342.667M150 345L151 346L150 345M151 347L152 348L151 347M275 347L276 348L275 347M152 348L153 349L152 348M274 348L275 349L274 348M153 350L154 351L153 350M273 350L274 351L273 350M154 352L155 353L154 352M155 353L156 354L155 353M271 353L272 354L271 353M156 354L157 355L156 354M268 357L269 358L268 357M267 358L268 359L267 358M160 359L161 360L160 359M266 359L267 360L266 359M162 361L163 362L162 361M264 361L265 362L264 361M164 363L165 364L164 363M262 363L263 364L262 363M165 364L166 365L165 364M258 366L259 367L258 366M169 367L170 368L169 367M257 367L258 368L257 367M170 368L171 369L170 368M256 368L257 369L256 368M254 369L255 370L254 369M173 370L174 371L173 370M253 370L254 371L253 370M175 371L176 372L175 371M251 371L252 372L251 371M177 372L178 373L177 372M249 372L250 373L249 372M179 373L180 374L179 373M247 373L248 374L247 373M181 374L182 375L181 374M245 374L246 375L245 374M183 375L184 376L183 375M243 375L244 376L243 375M185.667 376.333L186.333 376.667L185.667 376.333M240.667 376.333L241.333 376.667L240.667 376.333M188 377L189 378L188 377M238 377L239 378L238 377M191.667 378.333L192.333 378.667L191.667 378.333M234.667 378.333L235.333 378.667L234.667 378.333M195 379L196 380L195 379M231 379L232 380L231 379M199 380L199 381L202 381L199 380M225 380L225 381L228 381L225 380M206.667 381.333L207.333 381.667L206.667 381.333M219.667 381.333L220.333 381.667L219.667 381.333z"/>
</svg>
